<?xml version="1.0" encoding="utf-8"?>
<!-- Generator: Adobe Illustrator 19.1.0, SVG Export Plug-In . SVG Version: 6.00 Build 0)  -->
<svg version="1.0" id="Layer_1" xmlns="http://www.w3.org/2000/svg" xmlns:xlink="http://www.w3.org/1999/xlink" x="0px" y="0px"
	 viewBox="0 0 256 256" enable-background="new 0 0 256 256" xml:space="preserve">
<g>
	<g>
		<path fill="#4D4D4D" d="M161.378,23.286h55.334l2.767,1.537c-1.028,4.51-2.051,8.915-3.074,13.219
			c-1.028,3.689-1.998,7.484-2.921,11.374c-0.922,3.896-1.691,7.176-2.306,9.837c0,0.413-0.259,1.129-0.768,2.152
			c-0.514,1.028-0.769,1.744-0.769,2.152c-0.413-3.891-1.129-6.763-2.152-8.608c-1.028-1.845-3.487-3.175-7.378-3.996h-3.382v10.452
			c-0.821,0-1.643-0.101-2.459-0.307c-0.615,0-1.335-0.048-2.152-0.154c-0.821-0.101-1.436-0.154-1.845-0.154
			c-1.643-0.202-3.895-0.562-6.763-1.076c-2.872-0.509-5.74-0.97-8.608-1.383c-2.872-0.408-5.332-0.817-7.378-1.23
			c-2.051-0.408-3.18-0.615-3.381-0.615l-2.767-1.23V23.286z M196.73,84.769v21.519c1.023,0,1.585,0.308,1.691,0.922
			c0.101,0.615,0.154,1.23,0.154,1.845v1.537c-0.207,0.822-0.567,2.358-1.076,4.611c-0.514,2.257-1.076,4.611-1.691,7.07
			c-0.615,2.459-1.182,4.818-1.691,7.071c-0.514,2.257-0.874,3.795-1.076,4.611c-0.413,1.028-1.335,1.537-2.767,1.537
			c-1.436,0-2.565-0.154-3.382-0.461c-0.821-0.307-1.95-0.662-3.381-1.076c-1.845-0.408-4.049-1.023-6.609-1.844
			c-2.565-0.817-4.971-1.638-7.224-2.459c-2.666-0.816-5.432-1.638-8.3-2.459V60.79L196.73,84.769z M161.378,131.188
			c1.844,0.413,4.304,1.076,7.378,1.998s6.095,1.844,9.069,2.767c2.969,0.922,5.534,1.743,7.685,2.459
			c2.152,0.721,3.329,1.076,3.535,1.076c0.615,0.413,0.97,0.922,1.076,1.537c0.101,0.615,0.154,1.23,0.154,1.844
			c0,2.459-0.259,4.919-0.768,7.378c-0.514,2.459-1.182,4.919-1.998,7.378c-0.821,1.643-2.512,3.075-5.072,4.304
			c-2.565,1.23-5.279,2.306-8.146,3.228c-2.872,0.923-5.586,1.691-8.146,2.306c-2.565,0.615-4.15,1.028-4.765,1.23V131.188z
			 M186.278,163.774l-15.371,63.019c-0.413,1.436-1.845,2.82-4.304,4.15c-2.459,1.336-4.203,2.205-5.226,2.613v-60.868
			L186.278,163.774z M168.141,237.86h-5.534c0.408-0.408,1.177-0.971,2.306-1.691c1.124-0.716,2.2-1.076,3.228-1.076V237.86z
			 M172.444,62.02c1.023,0,2.815,0.106,5.38,0.307c2.56,0.207,5.173,0.461,7.839,0.769c2.661,0.307,5.019,0.768,7.071,1.383
			c2.046,0.615,3.074,1.23,3.074,1.845v12.911l-26.13-17.215H172.444z M176.441,229.56c2.253-1.431,6.302-3.843,12.143-7.225
			c5.841-3.381,12.09-6.965,18.752-10.759c6.658-3.79,12.959-7.378,18.906-10.759c5.942-3.382,10.145-5.788,12.604-7.224
			c0.408-0.408,1.331-0.869,2.767-1.384c1.431-0.509,2.353-0.97,2.767-1.383v11.066c0,4.919-0.461,9.583-1.384,13.987
			c-0.922,4.41-2.459,8.252-4.611,11.528c-2.152,3.281-5.125,5.84-8.915,7.685c-3.795,1.844-8.559,2.766-14.295,2.766h-42.73
			c0-1.844,0.308-3.535,0.922-5.072C173.981,231.25,175.005,230.174,176.441,229.56z M197.96,209.271h4.919l-26.437,15.985h-1.23
			c0.202-1.23,0.461-5.073,0.769-11.528c0.307-6.456,1.124-13.473,2.459-21.057c1.331-7.579,3.482-14.549,6.456-20.904
			c2.968-6.35,7.325-10.144,13.065-11.374V209.271z M194.578,143.791c0.408-1.023,1.331-1.537,2.767-1.537v13.833
			c0,0.413-0.769,0.768-2.306,1.076s-2.613,0.461-3.228,0.461v-1.537c0.202-0.615,0.408-1.484,0.615-2.613
			c0.202-1.124,0.461-2.353,0.769-3.689c0.307-1.331,0.562-2.561,0.768-3.689C194.165,144.973,194.372,144.204,194.578,143.791z
			 M197.345,135.492c0-4.712,0.716-9.53,2.152-14.449c1.431-4.918,2.56-8.915,3.382-11.989c2.868-2.046,4.611-4.198,5.226-6.456
			c0.615-2.253,1.124-5.121,1.537-8.608c1.023,0.615,2.767,1.796,5.226,3.535c2.459,1.744,5.072,3.535,7.839,5.38
			s5.428,3.64,7.993,5.379c2.56,1.744,4.352,2.921,5.38,3.535c0.408,0,0.97,0.36,1.691,1.076c0.716,0.721,1.076,1.282,1.076,1.691
			c-1.028,1.436-2.258,2.767-3.689,3.997c-1.436,1.23-2.973,2.257-4.611,3.074c2.046,1.643,4.611,3.795,7.685,6.456
			c3.074,2.666,4.611,5.74,4.611,9.222c0,1.643-0.922,3.026-2.766,4.15c-1.845,1.129-3.896,2.104-6.148,2.921
			c-2.258,0.821-4.356,1.383-6.302,1.691c-1.95,0.308-3.026,0.461-3.228,0.461c-2.459,0-4.818-0.409-7.071-1.23
			c-2.258-0.817-4.458-1.739-6.609-2.767c-2.152-1.023-4.304-1.945-6.456-2.766c-2.152-0.817-4.458-1.33-6.917-1.537V135.492z
			 M244.379,156.703v28.59c0,1.844-1.489,3.948-4.458,6.302c-2.973,2.358-6.456,4.611-10.452,6.763
			c-3.996,2.152-7.945,3.948-11.835,5.38c-3.895,1.436-6.763,2.152-8.608,2.152h-0.615l1.23-49.801l1.23-0.615
			c0.816-0.408,1.331-0.615,1.537-0.615c1.023-0.408,2.2-0.869,3.535-1.384c1.331-0.509,2.714-0.97,4.15-1.383
			c1.638-0.615,3.276-1.124,4.919-1.537L244.379,156.703z M209.641,84.154c0-2.868,0.202-5.327,0.615-7.378
			c0.408-2.046,1.124-4.611,2.152-7.685h2.767h2.767c1.638,0.206,3.89,0.514,6.763,0.922c2.868,0.413,5.634,0.821,8.3,1.23
			c3.074,0.615,6.35,1.229,9.837,1.844l1.537,1.537v28.897c0,0.821-0.36,1.998-1.076,3.535c-0.721,1.537-1.283,2.719-1.691,3.535
			c-2.872-1.023-6.1-2.353-9.683-3.996c-3.588-1.638-7.071-3.535-10.452-5.687s-6.201-4.611-8.454-7.378
			C210.765,90.763,209.641,87.641,209.641,84.154z M210.564,146.559c1.023,0,2.2,0.206,3.535,0.615
			c1.331,0.413,2.2,1.129,2.613,2.152c-1.028,0.413-2.205,0.721-3.535,0.922c-1.335,0.206-2.512,0.308-3.535,0.308v-3.996H210.564z
			 M213.945,63.557c1.023-4.712,2.046-9.222,3.074-13.526c1.023-3.689,1.945-7.479,2.767-11.374c0.817-3.89,1.638-7.171,2.459-9.837
			c0.408-1.432,0.615-2.459,0.615-3.074s0.509-0.922,1.537-0.922c5.533,0,9.732,1.691,12.604,5.072
			c2.868,3.381,4.866,7.43,5.995,12.143c1.124,4.717,1.739,9.583,1.845,14.602c0.101,5.024,0.153,9.174,0.153,12.45h-3.381
			c-2.051-0.408-4.51-0.869-7.378-1.384c-2.872-0.509-5.74-0.97-8.608-1.383c-3.281-0.615-6.763-1.124-10.452-1.537L213.945,63.557z
			 M244.379,143.791v8.301c-2.258,0-4.717-0.308-7.378-0.923c-2.666-0.615-4.409-1.738-5.226-3.381L244.379,143.791z"/>
	</g>
</g>
<g>
	<g>
		<path fill="#F7931E" d="M121.381,22.437l31.263,31.415v64.508l-11.133,11.133l11.133,10.828v95.466h-40.718v-81.131h-50.63v81.131
			h-40.87V22.437H121.381z M111.926,63.307h-50.63v50.63h50.63V63.307z"/>
	</g>
</g>
<g>
</g>
<g>
</g>
<g>
</g>
<g>
</g>
<g>
</g>
<g>
</g>
<g>
</g>
<g>
</g>
<g>
</g>
<g>
</g>
<g>
</g>
<g>
</g>
<g>
</g>
<g>
</g>
<g>
</g>
</svg>
